<?xml version="1.0" encoding="UTF-8"?>
<svg width="85px" height="94px" viewBox="0 0 85 94" version="1.1" xmlns="http://www.w3.org/2000/svg" xmlns:xlink="http://www.w3.org/1999/xlink">
    <title>Artboard</title>
    <g id="Artboard" stroke="none" stroke-width="1" fill="none" fill-rule="evenodd">
        <path d="M65.438,93.875 L18.563,93.875 C14.2505,93.875 10.7505,90.375 10.7505,86.0625 L10.7505,7.9375 C10.7505,3.625 14.2505,0.125 18.563,0.125 L65.438,0.125 C69.7505,0.125 73.2505,3.625 73.2505,7.9375 L73.2505,86.0625 C73.2505,90.375 69.7505,93.875 65.438,93.875 Z" id="Shape" fill="#FFFFFF" fill-rule="nonzero"></path>
        <g id="noun-calculator-8049723" transform="translate(-8.000000, 0.125000)" fill="#009CFF" fill-rule="nonzero">
            <path d="M70.312,53.125 L64.062,53.125 C61.4839,53.125 59.3745,51.0156 59.3745,48.4375 L59.3745,42.1875 C59.3745,39.6094 61.4839,37.5 64.062,37.5 L70.312,37.5 C72.8901,37.5 74.9995,39.6094 74.9995,42.1875 L74.9995,48.4375 C74.9995,51.0156 72.8901,53.125 70.312,53.125 Z M64.062,40.625 C63.20262,40.625 62.4995,41.32812 62.4995,42.1875 L62.4995,48.4375 C62.4995,49.29688 63.20262,50 64.062,50 L70.312,50 C71.17138,50 71.8745,49.29688 71.8745,48.4375 L71.8745,42.1875 C71.8745,41.32812 71.17138,40.625 70.312,40.625 L64.062,40.625 Z" id="Shape"></path>
            <path d="M53.125,53.125 L46.875,53.125 C44.2969,53.125 42.1875,51.0156 42.1875,48.4375 L42.1875,42.1875 C42.1875,39.6094 44.2969,37.5 46.875,37.5 L53.125,37.5 C55.7031,37.5 57.8125,39.6094 57.8125,42.1875 L57.8125,48.4375 C57.8125,51.0156 55.7031,53.125 53.125,53.125 Z M46.875,40.625 C46.01562,40.625 45.3125,41.32812 45.3125,42.1875 L45.3125,48.4375 C45.3125,49.29688 46.01562,50 46.875,50 L53.125,50 C53.98438,50 54.6875,49.29688 54.6875,48.4375 L54.6875,42.1875 C54.6875,41.32812 53.98438,40.625 53.125,40.625 L46.875,40.625 Z" id="Shape"></path>
            <path d="M35.938,53.125 L29.688,53.125 C27.1099,53.125 25.0005,51.0156 25.0005,48.4375 L25.0005,42.1875 C25.0005,39.6094 27.1099,37.5 29.688,37.5 L35.938,37.5 C38.5161,37.5 40.6255,39.6094 40.6255,42.1875 L40.6255,48.4375 C40.6255,51.0156 38.5161,53.125 35.938,53.125 Z M29.688,40.625 C28.82862,40.625 28.1255,41.32812 28.1255,42.1875 L28.1255,48.4375 C28.1255,49.29688 28.82862,50 29.688,50 L35.938,50 C36.79738,50 37.5005,49.29688 37.5005,48.4375 L37.5005,42.1875 C37.5005,41.32812 36.79738,40.625 35.938,40.625 L29.688,40.625 Z" id="Shape"></path>
            <path d="M53.125,70.313 L46.875,70.313 C44.2969,70.313 42.1875,68.2036 42.1875,65.6255 L42.1875,59.3755 C42.1875,56.7974 44.2969,54.688 46.875,54.688 L53.125,54.688 C55.7031,54.688 57.8125,56.7974 57.8125,59.3755 L57.8125,65.6255 C57.8125,68.2036 55.7031,70.313 53.125,70.313 Z M46.875,57.813 C46.01562,57.813 45.3125,58.51612 45.3125,59.3755 L45.3125,65.6255 C45.3125,66.48488 46.01562,67.188 46.875,67.188 L53.125,67.188 C53.98438,67.188 54.6875,66.48488 54.6875,65.6255 L54.6875,59.3755 C54.6875,58.51612 53.98438,57.813 53.125,57.813 L46.875,57.813 Z" id="Shape"></path>
            <path d="M35.938,70.313 L29.688,70.313 C27.1099,70.313 25.0005,68.2036 25.0005,65.6255 L25.0005,59.3755 C25.0005,56.7974 27.1099,54.688 29.688,54.688 L35.938,54.688 C38.5161,54.688 40.6255,56.7974 40.6255,59.3755 L40.6255,65.6255 C40.6255,68.2036 38.5161,70.313 35.938,70.313 Z M29.688,57.813 C28.82862,57.813 28.1255,58.51612 28.1255,59.3755 L28.1255,65.6255 C28.1255,66.48488 28.82862,67.188 29.688,67.188 L35.938,67.188 C36.79738,67.188 37.5005,66.48488 37.5005,65.6255 L37.5005,59.3755 C37.5005,58.51612 36.79738,57.813 35.938,57.813 L29.688,57.813 Z" id="Shape"></path>
            <path d="M70.312,87.5 L64.062,87.5 C61.4839,87.5 59.3745,85.3906 59.3745,82.8125 L59.3745,59.3745 C59.3745,56.7964 61.4839,54.687 64.062,54.687 L70.312,54.687 C72.8901,54.687 74.9995,56.7964 74.9995,59.3745 L74.9995,82.8125 C74.9995,85.3906 72.8901,87.5 70.312,87.5 Z M64.062,57.812 C63.20262,57.812 62.4995,58.51512 62.4995,59.3745 L62.4995,82.8125 C62.4995,83.67188 63.20262,84.375 64.062,84.375 L70.312,84.375 C71.17138,84.375 71.8745,83.67188 71.8745,82.8125 L71.8745,59.3745 C71.8745,58.51512 71.17138,57.812 70.312,57.812 L64.062,57.812 Z" id="Shape"></path>
            <path d="M53.125,87.5 L46.875,87.5 C44.2969,87.5 42.1875,85.3906 42.1875,82.8125 L42.1875,76.5625 C42.1875,73.9844 44.2969,71.875 46.875,71.875 L53.125,71.875 C55.7031,71.875 57.8125,73.9844 57.8125,76.5625 L57.8125,82.8125 C57.8125,85.3906 55.7031,87.5 53.125,87.5 Z M46.875,75 C46.01562,75 45.3125,75.70312 45.3125,76.5625 L45.3125,82.8125 C45.3125,83.67188 46.01562,84.375 46.875,84.375 L53.125,84.375 C53.98438,84.375 54.6875,83.67188 54.6875,82.8125 L54.6875,76.5625 C54.6875,75.70312 53.98438,75 53.125,75 L46.875,75 Z" id="Shape"></path>
            <path d="M35.938,87.5 L29.688,87.5 C27.1099,87.5 25.0005,85.3906 25.0005,82.8125 L25.0005,76.5625 C25.0005,73.9844 27.1099,71.875 29.688,71.875 L35.938,71.875 C38.5161,71.875 40.6255,73.9844 40.6255,76.5625 L40.6255,82.8125 C40.6255,85.3906 38.5161,87.5 35.938,87.5 Z M29.688,75 C28.82862,75 28.1255,75.70312 28.1255,76.5625 L28.1255,82.8125 C28.1255,83.67188 28.82862,84.375 29.688,84.375 L35.938,84.375 C36.79738,84.375 37.5005,83.67188 37.5005,82.8125 L37.5005,76.5625 C37.5005,75.70312 36.79738,75 35.938,75 L29.688,75 Z" id="Shape"></path>
            <path d="M73.438,93.75 L26.563,93.75 C22.2505,93.75 18.7505,90.25 18.7505,85.9375 L18.7505,7.8125 C18.7505,3.5 22.2505,0 26.563,0 L73.438,0 C77.7505,0 81.2505,3.5 81.2505,7.8125 L81.2505,85.9375 C81.2505,90.25 77.7505,93.75 73.438,93.75 Z M26.563,3.125 C23.9849,3.125 21.8755,5.2344 21.8755,7.8125 L21.8755,85.9375 C21.8755,88.5156 23.9849,90.625 26.563,90.625 L73.438,90.625 C76.0161,90.625 78.1255,88.5156 78.1255,85.9375 L78.1255,7.8125 C78.1255,5.2344 76.0161,3.125 73.438,3.125 L26.563,3.125 Z" id="Shape"></path>
            <path d="M70.312,34.375 L29.687,34.375 C27.1089,34.375 24.9995,32.2656 24.9995,29.6875 L24.9995,17.1875 C24.9995,14.6094 27.1089,12.5 29.687,12.5 L70.312,12.5 C72.8901,12.5 74.9995,14.6094 74.9995,17.1875 L74.9995,29.6875 C74.9995,32.2656 72.8901,34.375 70.312,34.375 Z M29.687,15.625 C28.82762,15.625 28.1245,16.32812 28.1245,17.1875 L28.1245,29.6875 C28.1245,30.54688 28.82762,31.25 29.687,31.25 L70.312,31.25 C71.17138,31.25 71.8745,30.54688 71.8745,29.6875 L71.8745,17.1875 C71.8745,16.32812 71.17138,15.625 70.312,15.625 L29.687,15.625 Z" id="Shape"></path>
            <path d="M56.25,9.375 L43.75,9.375 C42.89062,9.375 42.1875,8.67188 42.1875,7.8125 C42.1875,6.95312 42.89062,6.25 43.75,6.25 L56.25,6.25 C57.10938,6.25 57.8125,6.95312 57.8125,7.8125 C57.8125,8.67188 57.10938,9.375 56.25,9.375 Z" id="Path"></path>
        </g>
    </g>
</svg>